Patient4_TMGait_0pt8_01_right_02_GRF.mot
version=1
nRows=59
nColumns=19
inDegrees=no
endheader
time	F1x	F1y	F1z	M1x	M1y	M1z	F2x	F2y	F2z	M2x	M2y	M2z	EC1x	EC1y	EC1z	EC2x	EC2y	EC2z
1.89	-27.4365	693.1177	68.9162	-216.8785	-74.114	717.3466	-10.2052	14.6978	0.38717	4.1479	1.5691	21.6271	-0.0592	0.0182	-0.0073	-0.0462	0.0165	0.9585
1.9015	-22.5109	701.0922	66.6321	-219.2904	-70.5404	720.8731	-7.1009	10.7924	0.2227	3.1191	1.1948	15.6104	-0.0592	0.0182	-0.0073	-0.0462	0.0165	0.9585
1.913	-17.5465	710.5843	64.6846	-222.2421	-67.0539	725.0641	-4.474	7.559	0.090212	2.2741	0.86842	10.6155	-0.0592	0.0182	-0.0073	-0.0462	0.0165	0.9585
1.9245	-12.6825	720.9578	63.177	-225.5402	-63.8103	729.4428	-2.4446	5.1474	-0.0034762	1.6513	0.60473	6.8792	-0.0592	0.0182	-0.0073	-0.0462	0.0165	0.9585
1.936	-7.9622	731.3628	62.1837	-228.9101	-60.9382	733.3465	-1.0453	3.5511	-0.06317	1.247	0.41933	4.4053	-0.0592	0.0182	-0.0073	-0.0462	0.0165	0.9585
1.9475	-3.3537	740.7889	61.666	-232.0289	-58.4503	735.9043	-0.15559	2.6133	-0.10539	1.0179	0.30761	2.9294	-0.0592	0.0182	-0.0073	-0.0462	0.0165	0.9585
1.959	1.1975	748.2567	61.5891	-234.5836	-56.3486	736.269	0.30511	2.156	-0.14516	0.91301	0.27317	2.2003	-0.0592	0.0182	-0.0073	-0.0462	0.0165	0.9585
1.9705	5.8268	752.9469	61.7743	-236.3282	-54.4697	733.71	0.49591	1.9497	-0.20574	0.86463	0.30845	1.8809	-0.0592	0.0182	-0.0073	-0.0462	0.0165	0.9585
1.982	10.6536	754.3653	62.0607	-237.1246	-52.6531	727.7901	0.48108	1.8124	-0.28862	0.81342	0.40458	1.7226	-0.0592	0.0182	-0.0073	-0.0462	0.0165	0.9585
1.9935	15.8206	752.4268	62.2358	-236.9696	-50.6713	718.4464	0.3753	1.5352	-0.41179	0.6912	0.55783	1.4239	-0.0592	0.0182	-0.0073	-0.0462	0.0165	0.9585
2.005	21.4137	747.5231	62.1597	-236.0008	-48.3713	706.1076	0.20227	0.97032	-0.56841	0.44193	0.76262	0.80573	-0.0592	0.0182	-0.0073	-0.0462	0.0165	0.9585
2.0165	27.4458	740.5343	61.744	-234.4955	-45.6609	691.665	0.041227	-0.041395	-0.75174	0.0080025	0.99711	-0.33801	-0.0592	0.0182	-0.0073	-0.0462	0.0165	0.9585
2.028	33.8846	732.7203	60.9914	-232.8252	-42.534	676.3939	-0.10071	-1.5752	-0.94327	-0.64222	1.2326	-2.0805	-0.0592	0.0182	-0.0073	-0.0462	0.0165	0.9585
2.0395	40.6397	725.5148	60.0422	-231.3858	-39.1193	661.7302	-0.13516	-3.6632	-1.0953	-1.5149	1.386	-4.4941	-0.0592	0.0182	-0.0073	-0.0462	0.0165	0.9585
2.051	47.5516	720.238	59.1168	-230.515	-35.6309	649.0137	-0.046643	-6.1606	-1.1519	-2.5512	1.3782	-7.3988	-0.0592	0.0182	-0.0073	-0.0462	0.0165	0.9585
2.0625	54.3994	717.8438	58.5361	-230.42	-32.3942	639.2704	0.26175	-8.7654	-1.0101	-3.6148	1.0572	-10.453	-0.0592	0.0182	-0.0073	-0.0462	0.0165	0.9585
2.074	60.9005	718.7281	58.5575	-231.1339	-29.7067	632.9938	0.81848	-10.8335	-0.55367	-4.4347	0.26721	-12.8833	-0.0592	0.0182	-0.0073	-0.0462	0.0165	0.9585
2.0855	66.7235	722.5965	59.3893	-232.4887	-27.861	630.055	1.7034	-11.3562	0.36897	-4.5802	-1.1964	-13.525	-0.0592	0.0182	-0.0073	-0.0462	0.0165	0.9585
2.097	71.5916	728.5833	61.0398	-234.1721	-26.978	629.7685	2.9087	-8.8015	1.9077	-3.4166	-3.505	-10.5699	-0.0592	0.0182	-0.0073	-0.0462	0.0165	0.9585
2.1085	75.271	735.4306	63.35	-235.7921	-27.0308	631.067	4.4136	-1.2067	4.1944	-0.1254	-6.7883	-1.7438	-0.0592	0.0182	-0.0073	-0.0462	0.0165	0.9585
2.12	77.7237	741.6829	65.9995	-236.9407	-27.7997	632.6559	6.0342	13.8287	7.2675	6.2734	-11.0029	15.7698	-0.0592	0.0182	-0.0073	-0.0462	0.0165	0.9585
2.1315	79.0508	745.8197	68.5712	-237.2238	-28.931	633.1409	7.4719	38.7473	10.9964	16.773	-15.8458	44.8097	-0.0592	0.0182	-0.0073	-0.0462	0.0165	0.9585
2.143	79.4859	746.3038	70.637	-236.2655	-30.0161	631.0723	8.1407	75.5721	14.9725	32.1614	-20.5728	87.7741	-0.0592	0.0182	-0.0073	-0.0462	0.0165	0.9585
2.1545	79.3015	741.5755	71.7729	-233.6911	-30.6292	625.0013	7.1318	125.0047	18.3846	52.6543	-23.8381	145.5043	-0.0592	0.0182	-0.0073	-0.0462	0.0165	0.9585
2.166	78.7295	729.9966	71.6045	-229.0929	-30.4025	613.4187	3.0179	185.376	20.1185	77.4552	-23.7495	216.0911	-0.0592	0.0182	-0.0073	-0.0462	0.0165	0.9585
2.1775	77.8028	709.8451	69.8287	-222.0153	-29.0863	594.8092	-5.1127	251.8504	18.7005	104.4594	-18.274	293.8767	-0.0592	0.0182	-0.0073	-0.0462	0.0165	0.9585
2.189	76.3433	679.4753	66.2667	-211.9944	-26.6074	567.7971	-16.3937	317.3227	13.1423	130.6963	-6.7643	370.4498	-0.0592	0.0182	-0.0073	-0.0462	0.0165	0.9585
2.2005	73.9315	637.8027	60.9028	-198.7028	-23.1005	531.5526	-28.6961	375.5649	3.9576	153.6664	9.213	438.1608	-0.0592	0.0182	-0.0073	-0.0462	0.0165	0.9585
2.212	70.1408	584.7761	53.9288	-182.098	-18.8637	486.1489	-40.348	424.6413	-7.6167	172.6257	27.4402	494.4383	-0.0592	0.0182	-0.0073	-0.0462	0.0165	0.9585
2.2235	64.6593	521.6592	45.7611	-162.5163	-14.3175	432.7456	-50.4682	466.4316	-20.082	188.4209	45.8275	541.2356	-0.0592	0.0182	-0.0073	-0.0462	0.0165	0.9585
2.235	57.4107	450.9331	37.0022	-140.6573	-9.9296	373.44	-58.602	504.5078	-32.286	202.5768	62.8527	582.6671	-0.0592	0.0182	-0.0073	-0.0462	0.0165	0.9585
2.2465	48.5911	376.0569	28.3211	-117.522	-6.1249	311.0971	-64.4483	541.93	-42.9751	216.4253	77.0214	622.2762	-0.0592	0.0182	-0.0073	-0.0462	0.0165	0.9585
2.258	38.6676	301.0675	20.3528	-94.3059	-3.2213	248.9798	-67.908	580.0684	-51.5305	230.5645	87.6177	661.7039	-0.0592	0.0182	-0.0073	-0.0462	0.0165	0.9585
2.2695	28.3431	230.0776	13.5706	-72.257	-1.3477	190.3867	-69.0869	618.5465	-57.8652	244.8431	94.6253	700.6216	-0.0592	0.0182	-0.0073	-0.0462	0.0165	0.9585
2.281	18.5321	166.6861	8.2106	-52.4962	-0.38963	138.1732	-68.3587	655.8555	-62.4234	258.6013	98.7241	737.5174	-0.0592	0.0182	-0.0073	-0.0462	0.0165	0.9585
2.2925	10.1062	113.3227	4.2958	-35.8023	-0.089636	94.2403	-66.1824	690.0532	-66.003	270.9899	101.0048	770.4272	-0.0592	0.0182	-0.0073	-0.0462	0.0165	0.9585
2.304	3.633	70.9759	1.6597	-22.515	-0.14096	59.3321	-63.0482	719.5089	-69.1528	281.3085	102.3208	797.7547	-0.0592	0.0182	-0.0073	-0.0462	0.0165	0.9585
2.3155	-0.71835	39.374	0.039957	-12.5751	-0.29178	33.224	-59.3678	743.1397	-72.3334	289.117	103.3673	818.4804	-0.0592	0.0182	-0.0073	-0.0462	0.0165	0.9585
2.327	-3.1139	17.3857	-0.80043	-5.6427	-0.42233	14.9981	-55.4669	760.5122	-75.4912	294.2843	104.2705	832.2531	-0.0592	0.0182	-0.0073	-0.0462	0.0165	0.9585
2.3385	-3.9447	3.4278	-1.1253	-1.2282	-0.45529	3.3867	-51.546	771.7353	-78.4242	296.9316	104.9271	839.2883	-0.0592	0.0182	-0.0073	-0.0462	0.0165	0.9585
2.35	-3.7678	-4.2926	-1.1071	1.2281	-0.43581	-3.0677	-47.6626	777.3781	-80.6601	297.3833	104.9049	840.2591	-0.0592	0.0182	-0.0073	-0.0462	0.0165	0.9585
2.3615	-3.0819	-7.5658	-0.93015	2.2837	-0.37038	-5.8246	-43.8124	778.2191	-81.8657	296.0448	103.8711	836.0584	-0.0592	0.0182	-0.0073	-0.0462	0.0165	0.9585
2.373	-2.2066	-7.9819	-0.67308	2.4385	-0.30383	-6.1904	-39.9601	775.1337	-81.8829	293.3433	101.6522	827.6674	-0.0592	0.0182	-0.0073	-0.0462	0.0165	0.9585
2.3845	-1.3537	-6.7931	-0.42933	2.0846	-0.22848	-5.1939	-36.0772	769.005	-80.8408	289.6718	98.3736	816.0612	-0.0592	0.0182	-0.0073	-0.0462	0.0165	0.9585
2.396	-0.63396	-4.9023	-0.20916	1.5056	-0.17549	-3.6018	-32.1646	760.6154	-79.032	285.3628	94.3407	802.0901	-0.0592	0.0182	-0.0073	-0.0462	0.0165	0.9585
2.4075	-0.093805	-2.898	-0.036779	0.88516	-0.1383	-1.8974	-28.2728	750.8243	-76.7169	280.7559	89.853	786.6854	-0.0592	0.0182	-0.0073	-0.0462	0.0165	0.9585
2.419	0.27643	-1.1196	0.09443	0.32926	-0.12188	-0.37916	-24.47	740.592	-74.1469	276.2245	85.2065	770.8455	-0.0592	0.0182	-0.0073	-0.0462	0.0165	0.9585
2.4305	0.48584	0.28984	0.19319	-0.117	-0.13179	0.83761	-20.8178	730.958	-71.4618	272.1683	80.58	755.6342	-0.0592	0.0182	-0.0073	-0.0462	0.0165	0.9585
2.442	0.58423	1.2938	0.26075	-0.44318	-0.15237	1.7167	-17.3374	722.8422	-68.7865	268.9341	76.1149	741.9665	-0.0592	0.0182	-0.0073	-0.0462	0.0165	0.9585
2.4535	0.59058	1.9456	0.31824	-0.66366	-0.19229	2.2966	-14.0441	716.89	-66.1828	266.7585	71.8771	730.4506	-0.0592	0.0182	-0.0073	-0.0462	0.0165	0.9585
2.465	0.55325	2.3054	0.35911	-0.7958	-0.23164	2.6135	-10.9011	713.4626	-63.7286	265.7616	67.9249	721.383	-0.0592	0.0182	-0.0073	-0.0462	0.0165	0.9585
2.4765	0.49199	2.4747	0.39613	-0.86658	-0.27777	2.7603	-7.8967	712.7461	-61.4566	265.985	64.2681	714.8912	-0.0592	0.0182	-0.0073	-0.0462	0.0165	0.9585
2.488	0.42574	2.527	0.4129	-0.89808	-0.31256	2.7785	-5.0044	714.7356	-59.3877	267.3878	60.8906	710.9225	-0.0592	0.0182	-0.0073	-0.0462	0.0165	0.9585
2.4995	0.35673	2.5221	0.41654	-0.90726	-0.33886	2.736	-2.2046	719.2312	-57.5483	269.8357	57.7738	709.2744	-0.0592	0.0182	-0.0073	-0.0462	0.0165	0.9585
2.511	0.29221	2.4827	0.40314	-0.90273	-0.3468	2.6583	0.55631	725.7385	-55.987	273.0717	54.9122	709.4635	-0.0592	0.0182	-0.0073	-0.0462	0.0165	0.9585
2.5225	0.20347	2.4169	0.38754	-0.88551	-0.35709	2.5702	3.3296	733.4718	-54.81	276.7199	52.3515	710.7579	-0.0592	0.0182	-0.0073	-0.0462	0.0165	0.9585
2.534	0.10577	2.3146	0.3763	-0.84929	-0.37848	2.4568	6.1956	741.3845	-54.1025	280.3139	50.1168	712.1925	-0.0592	0.0182	-0.0073	-0.0462	0.0165	0.9585
2.5455	-0.02172	2.1377	0.38025	-0.77963	-0.42818	2.2745	9.2111	748.3187	-53.9439	283.3628	48.2462	712.7159	-0.0592	0.0182	-0.0073	-0.0462	0.0165	0.9585
2.557	-0.17051	1.8167	0.4053	-0.6524	-0.50963	1.9344	12.4508	753.2963	-54.3072	285.472	46.6966	711.4452	-0.0592	0.0182	-0.0073	-0.0462	0.0165	0.9585
